HIERARCHY
ROOT Hips
{
 OFFSET 0.000000 0.000000 0.000000
 CHANNELS 6 Xposition Yposition Zposition Yrotation Xrotation Zrotation
 JOINT Chest
 {
  OFFSET 0.000000 9.585900 0.002600
  CHANNELS 3 Yrotation Xrotation Zrotation
  JOINT Chest2
  {
   OFFSET 0.000000 9.601200 -0.005300
   CHANNELS 3 Yrotation Xrotation Zrotation
   JOINT Chest3
   {
    OFFSET 0.000000 9.561800 0.000000
    CHANNELS 3 Yrotation Xrotation Zrotation
    JOINT Chest4
    {
     OFFSET 0.000000 9.552100 0.000000
     CHANNELS 3 Yrotation Xrotation Zrotation
     JOINT Neck
     {
      OFFSET 0.000000 14.453000 0.000000
      CHANNELS 3 Yrotation Xrotation Zrotation
      JOINT Head
      {
       OFFSET 0.000000 8.936500 -0.011300
       CHANNELS 3 Yrotation Xrotation Zrotation
       End Site
       {
        OFFSET 0.000000 17.073600 -0.006000
       }
      }
     }
     JOINT RightCollar
     {
      OFFSET -2.921100 9.558500 0.000000
      CHANNELS 3 Yrotation Xrotation Zrotation
      JOINT RightShoulder
      {
       OFFSET -13.519700 0.000000 0.000000
       CHANNELS 3 Yrotation Xrotation Zrotation
       JOINT RightElbow
       {
        OFFSET 0.000000 -29.696600 0.000000
        CHANNELS 3 Yrotation Xrotation Zrotation
        JOINT RightWrist
        {
         OFFSET 0.000000 -24.004700 0.000000
         CHANNELS 3 Yrotation Xrotation Zrotation
         End Site
         {
          OFFSET 0.000000 -17.728500 0.000000
         }
        }
       }
      }
     }
     JOINT LeftCollar
     {
      OFFSET 2.921100 9.558500 0.000000
      CHANNELS 3 Yrotation Xrotation Zrotation
      JOINT LeftShoulder
      {
       OFFSET 13.519700 0.000000 0.000000
       CHANNELS 3 Yrotation Xrotation Zrotation
       JOINT LeftElbow
       {
        OFFSET 0.000000 -29.696600 0.000000
        CHANNELS 3 Yrotation Xrotation Zrotation
        JOINT LeftWrist
        {
         OFFSET 0.000000 -24.004700 0.000000
         CHANNELS 3 Yrotation Xrotation Zrotation
         End Site
         {
          OFFSET 0.000000 -17.728500 0.000000
         }
        }
       }
      }
     }
    }
   }
  }
 }
 JOINT RightHip
 {
  OFFSET -7.771700 -0.012900 -0.001300
  CHANNELS 3 Yrotation Xrotation Zrotation
  JOINT RightKnee
  {
   OFFSET 0.000000 -40.869800 0.001200
   CHANNELS 3 Yrotation Xrotation Zrotation
   JOINT RightAnkle
   {
    OFFSET 0.000000 -39.717900 0.002100
    CHANNELS 3 Yrotation Xrotation Zrotation
    JOINT RightToe
    {
     OFFSET 0.000000 -4.965400 11.033500
     CHANNELS 3 Yrotation Xrotation Zrotation
     End Site
     {
      OFFSET 0.000000 -1.423100 5.872300
     }
    }
   }
  }
 }
 JOINT LeftHip
 {
  OFFSET 7.771700 -0.012900 -0.001300
  CHANNELS 3 Yrotation Xrotation Zrotation
  JOINT LeftKnee
  {
   OFFSET 0.000000 -40.869800 0.001200
   CHANNELS 3 Yrotation Xrotation Zrotation
   JOINT LeftAnkle
   {
    OFFSET 0.000000 -39.717900 0.002100
    CHANNELS 3 Yrotation Xrotation Zrotation
    JOINT LeftToe
    {
     OFFSET 0.000000 -4.965400 11.033500
     CHANNELS 3 Yrotation Xrotation Zrotation
     End Site
     {
      OFFSET 0.000000 -1.423100 5.872300
     }
    }
   }
  }
 }
}
MOTION
Frames: 8
Frame Time: 0.008333
-188.043785 58.077376 29.245529 170.768527 -49.838833 -3.350341 5.212467 22.016954 3.698944 2.672806 12.620739 1.950796 3.427214 15.760343 2.542449 2.665669 12.623364 1.935607 1.811697 16.101965 5.119274 1.532240 -5.848513 8.837909 1.134581 4.284910 0.438676 2.013671 -13.407750 -10.704356 -93.127529 -69.847388 131.567542 7.313867 9.628703 -18.870731 -9.328601 1.681365 -0.929698 2.733512 -9.743307 13.174763 94.647409 -69.764651 -131.671513 -11.261042 2.291368 0.118311 3.627968 -22.930283 1.053272 -37.032293 73.196716 -38.086256 6.263668 -11.959610 8.737179 0.098830 -0.204861 0.079435 -0.947764 -21.283463 12.873321 51.350431 79.484514 51.219162 4.266980 -16.031328 -15.891041 0.034200 0.218610 0.026437
-188.044310 58.076584 29.245505 170.770415 -49.833419 -3.344981 5.212664 22.012047 3.702769 2.668636 12.620407 1.947617 3.426171 15.759688 2.544696 2.674874 12.615179 1.971046 1.799588 16.101318 5.096882 1.534010 -5.859069 8.832916 1.134178 4.282036 0.414915 2.008718 -13.397227 -10.702182 -93.089219 -69.848627 131.530672 7.315711 9.636121 -18.880362 -9.337682 1.679743 -0.946082 2.751463 -9.736958 13.158225 94.661666 -69.774011 -131.684476 -11.251306 2.289484 0.108330 3.633953 -22.939383 1.044474 -37.025873 73.209957 -38.076638 6.260746 -11.965124 8.731699 0.102153 -0.211436 0.077203 -0.944135 -21.290006 12.866877 51.339957 79.483186 51.209986 4.260428 -16.032284 -15.889215 0.035867 0.219033 0.024758
-188.045252 58.076400 29.244934 170.771273 -49.833671 -3.336201 5.207985 22.011915 3.703057 2.668403 12.614670 1.967057 3.423168 15.757989 2.555291 2.666050 12.619150 1.955987 1.799932 16.098799 5.093439 1.531813 -5.861047 8.824031 1.138349 4.278829 0.410910 2.004856 -13.387727 -10.706990 -93.073445 -69.857112 131.513152 7.302715 9.643252 -18.885270 -9.341709 1.681639 -0.944903 2.771286 -9.732804 13.141803 94.675002 -69.789355 -131.700817 -11.250783 2.295361 0.109627 3.640369 -22.939978 1.033756 -37.034451 73.214588 -38.085951 6.267124 -11.972394 8.733707 0.105380 -0.215529 0.071697 -0.938136 -21.291186 12.857294 51.337504 79.482366 51.208668 4.256113 -16.030280 -15.889932 0.040077 0.215633 0.025859
-188.044205 58.076272 29.244780 170.765864 -49.834636 -3.334971 5.212837 22.009264 3.717167 2.666180 12.612565 1.970695 3.422494 15.756645 2.560806 2.665452 12.618188 1.960451 1.800438 16.098163 5.090375 1.533818 -5.862281 8.818331 1.157775 4.262407 0.419454 1.984029 -13.361966 -10.730678 -93.045580 -69.842133 131.494074 7.354181 9.686690 -18.881210 -9.346132 1.683841 -0.942396 2.808823 -9.728103 13.141965 94.697905 -69.780220 -131.734304 -11.282274 2.327558 0.121264 3.640468 -22.941194 1.039141 -37.025158 73.219847 -38.075510 6.260099 -11.973790 8.727559 0.104055 -0.220625 0.068878 -0.931011 -21.292142 12.862004 51.345995 79.483703 51.219802 4.251926 -16.032567 -15.889904 0.041517 0.214205 0.025432
-188.043720 58.076409 29.244190 170.761310 -49.838140 -3.330706 5.214064 22.006194 3.727530 2.664174 12.616476 1.973029 3.422421 15.755817 2.566365 2.663642 12.618476 1.958716 1.805140 16.096415 5.093302 1.541354 -5.866443 8.814715 1.156866 4.261956 0.410664 1.987598 -13.358756 -10.717394 -93.078334 -69.855720 131.524804 7.365690 9.707477 -18.881544 -9.349885 1.684085 -0.946291 2.827058 -9.724729 13.139829 94.692408 -69.791812 -131.720500 -11.293516 2.325777 0.119165 3.643646 -22.940398 1.037954 -37.032009 73.227435 -38.080706 6.261816 -11.978255 8.725459 0.100619 -0.226393 0.063435 -0.921812 -21.290091 12.864112 51.359294 79.484387 51.236124 4.239487 -16.037110 -15.889987 0.045890 0.212524 0.026837
-188.044112 58.076395 29.243444 170.756044 -49.840693 -3.320513 5.212361 22.008395 3.726690 2.664051 12.616335 1.980711 3.422265 15.755473 2.571263 2.658458 12.620780 1.944998 1.817097 16.092553 5.107152 1.536878 -5.865711 8.803891 1.161159 4.257881 0.411323 1.994919 -13.357051 -10.698323 -93.172834 -69.890625 131.608831 7.388087 9.745011 -18.865309 -9.349139 1.681558 -0.939252 2.843687 -9.720828 13.136891 94.704422 -69.803230 -131.722777 -11.292619 2.327292 0.112117 3.653547 -22.940421 1.028537 -37.047286 73.236137 -38.089208 6.259174 -11.986741 8.718480 0.095926 -0.228543 0.062220 -0.911167 -21.288640 12.860697 51.376581 79.483197 51.254753 4.223564 -16.040464 -15.893156 0.047897 0.209608 0.030649
-188.044333 58.076327 29.242764 170.750733 -49.842298 -3.311246 5.209591 22.010268 3.731825 2.664134 12.616302 1.981894 3.421515 15.755486 2.571399 2.659869 12.619194 1.955549 1.811549 16.094681 5.092567 1.540042 -5.866824 8.800994 1.163815 4.250678 0.399249 1.999517 -13.351238 -10.694820 -93.213938 -69.908012 131.641094 7.371882 9.779986 -18.863015 -9.354459 1.673983 -0.935872 2.854819 -9.711533 13.114569 94.708106 -69.817799 -131.718521 -11.284007 2.329681 0.108369 3.659165 -22.939066 1.020217 -37.052028 73.241610 -38.089520 6.263711 -11.999959 8.711476 0.097655 -0.230381 0.057161 -0.904021 -21.287624 12.856497 51.396262 79.481929 51.272494 4.219994 -16.043312 -15.892402 0.043967 0.210243 0.030843
-188.043926 58.076380 29.242202 170.748648 -49.843693 -3.308155 5.204723 22.013300 3.747610 2.664093 12.616205 1.974467 3.419741 15.755500 2.562715 2.664556 12.617014 1.972024 1.807083 16.096016 5.081041 1.553263 -5.869949 8.801165 1.171207 4.240910 0.392739 1.999702 -13.345173 -10.694505 -93.195065 -69.900406 131.623397 7.386704 9.796815 -18.874148 -9.363294 1.668607 -0.931385 2.870023 -9.704796 13.094590 94.701530 -69.828929 -131.708341 -11.271468 2.333771 0.109704 3.659589 -22.936913 1.017640 -37.051182 73.243875 -38.086549 6.269186 -12.009105 8.708177 0.094964 -0.226926 0.054788 -0.899203 -21.285635 12.855314 51.386868 79.481873 51.263455 4.223554 -16.046693 -15.892664 0.044750 0.212922 0.029680
